<svg id="Layer_1" data-name="Layer 1" xmlns="http://www.w3.org/2000/svg" viewBox="0 0 1920 427.76"><defs><style>.cls-1{fill:#fff;}</style></defs><title>header-home</title><polygon class="cls-1" points="0 0 0 370.59 35.77 370.59 35.77 245.65 243.29 245.65 243.29 370.59 285.65 370.59 285.65 285.88 423.29 285.88 423.29 122.82 632.94 122.82 632.94 417.18 664.71 417.18 664.71 65.65 876.47 65.65 876.47 264.71 960 264.71 960 199.06 1160.23 199.06 1160.23 427.76 1198.35 427.76 1198.35 315.53 1249.18 315.53 1249.18 139.76 1463.06 139.76 1463.06 351.53 1482.12 351.53 1482.12 19.06 1696 19.06 1696 235.06 1784.94 235.06 1784.94 307.06 1920 307.06 1920 0 0 0"/></svg>